<svg xmlns="http://www.w3.org/2000/svg" viewBox="0 0 122 122">
  <g transform="translate(1 1)">
    <circle cx="60" cy="60" r="60" fill-rule="evenodd" clip-rule="evenodd" fill="#fff" stroke="#00bdda" stroke-width="2"/>
    <path d="M48.2 73.2c0-1.9.4-3.6 1.2-5.1.8-1.5 1.9-2.8 3.1-4 1.2-1.1 2.8-2.4 4.8-3.8 1.7-1.3 3-2.4 4-3.2 1-.9 1.8-1.8 2.5-2.8.8-1.3 1.2-2.8 1.2-4.4 0-1.1-.4-2-1.2-2.8-.8-.8-1.9-1.2-3.4-1.2-3.3 0-5 1.6-5 4.8v2h-6.8c0-.1-.1-.3-.1-.7-.1-.4-.1-.8-.1-1.3 0-3.5 1.2-6.1 3.5-7.8 2.3-1.7 5.2-2.6 8.8-2.6 3.1 0 5.5.6 7.1 1.8 1.7 1.2 2.8 2.5 3.3 4s.8 2.9.8 4.2c0 2.3-.5 4.3-1.6 6.1s-2.3 3.3-3.7 4.5-3.2 2.5-5.3 4c-1.6 1.1-2.8 2-3.6 2.7-.6.5-1 1-1.2 1.5H72V75H48v-1.8z" fill="#27343c"/>
  </g>
</svg>
