<svg xmlns="http://www.w3.org/2000/svg" viewBox="0 0 122 122">
  <g transform="translate(1 1)">
    <circle cx="60" cy="60" r="60" fill-rule="evenodd" clip-rule="evenodd" fill="#fff" stroke="#00bdda" stroke-width="2"/>
    <path d="M51 72.8c-2.1-1.9-3.2-4.4-3.2-7.5v-.9h6.9v1c0 1.5.5 2.6 1.4 3.4S58.3 70 60 70c1.5 0 2.8-.4 3.7-1.2s1.3-2 1.3-3.5c0-1.8-.5-3.1-1.5-3.8s-2.3-1.1-4-1.1H57v-5.6h2.7c1.4 0 2.5-.4 3.4-1.2s1.3-2 1.3-3.6c0-1.4-.4-2.5-1.1-3.2s-1.8-1-3.2-1c-1.4 0-2.5.4-3.4 1.1-.8.7-1.2 1.8-1.2 3.2v1h-7v-1.4c0-1.9.5-3.5 1.5-4.9 1-1.4 2.3-2.5 4-3.3 1.7-.8 3.7-1.2 5.9-1.2 3.5 0 6.3.8 8.4 2.5 2.1 1.6 3.1 4 3.1 7 0 1.9-.5 3.5-1.4 4.7-1 1.2-2.3 2.2-4 3v.2c1.9.6 3.4 1.6 4.5 3s1.7 3.2 1.7 5.4c0 2-.5 3.7-1.5 5.2s-2.4 2.6-4.2 3.4c-1.8.8-3.9 1.2-6.2 1.2-4.1-.3-7.2-1.2-9.3-3.1z" fill="#27343c"/>
  </g>
</svg>
