<svg id="Layer_1" xmlns="http://www.w3.org/2000/svg" viewBox="0 0 311.56 84.17">
  <path fill="#00968a" d="M280 52.61l10.52 10.52 21.04-21.04-21.04-21.05L280 31.56l10.52 10.53z"/>
  <path transform="rotate(-45.001 274.738 68.392)" fill="#027162" d="M259.86 60.95h29.76v14.88h-29.76z"/>
  <path transform="rotate(-45.001 274.739 15.785)" fill="#a7ce43" d="M267.3.9h14.88v29.76H267.3z"/>
  <path transform="rotate(-45.001 280 42.089)" fill="#00bcd9" d="M272.56 34.65h14.88v14.88h-14.88z"/>
  <path transform="rotate(-45.001 264.217 57.87)" class="st4" d="M249.34 50.43h29.76v14.88h-29.76z"/>
  <path transform="rotate(-45.001 264.217 26.306)" class="st4" d="M256.78 11.42h14.88v29.76h-14.88z"/>
  <g>
    <path fill="#fffff" class="st5" d="M10.75 21.73h30.66v-9.15H0V70.2h10.75V46.51h22.84v-9.15H10.75zM61.97 25.01c-7.28 0-12.73 1.88-16.34 5.63-3.61 3.75-5.42 9.58-5.42 17.47 0 7.9 1.81 13.72 5.42 17.47 3.61 3.75 9.06 5.63 16.34 5.63 7.28 0 12.73-1.87 16.34-5.63 3.61-3.75 5.42-9.58 5.42-17.47 0-7.9-1.81-13.72-5.42-17.47-3.62-3.75-9.06-5.63-16.34-5.63zM73.31 48.7c0 4.87-.9 8.47-2.69 10.79-1.79 2.32-4.68 3.49-8.65 3.49-4.03 0-6.93-1.16-8.69-3.49-1.76-2.32-2.65-5.92-2.65-10.79v-1.18c0-4.87.88-8.47 2.65-10.79s4.66-3.49 8.69-3.49c3.98 0 6.86 1.16 8.65 3.49 1.79 2.32 2.69 5.92 2.69 10.79v1.18zM110.37 25.01c-4.59 0-7.9 2.66-9.91 7.98h-.59l-.92-6.97h-8.32V70.2h10.08V47.18c0-7.95 3.56-11.93 10.67-11.93h3.19v-9.49c-.22-.11-.73-.26-1.51-.46-.79-.19-1.68-.29-2.69-.29zM133.51 13.67h-8.06l-1.85 12.35h-4.32v9.28h4.15v24.91c0 3.14.83 5.75 2.48 7.85 1.65 2.1 4.35 3.15 8.11 3.15 1.12 0 2.35-.14 3.7-.42 1.34-.28 2.46-.59 3.36-.92v-6.89h-3.95c-2.41 0-3.61-1.26-3.61-3.78V35.3h7.56v-9.28h-7.56V13.67zM150.09 26.02h10.08v44.19h-10.08zM150.09 12.58h10.08v9.34h-10.08z"/>
    <g>
      <path fill="#cce8de" class="st4" d="M171.88 70.2h10.76V46.51h22.83v-9.15h-22.83V21.73h30.66v-9.15h-41.42zM220.59 12.58h10.08v9.34h-10.08zM220.59 26.02h10.08v44.19h-10.08z"/>
    </g>
  </g>
</svg>
