<?xml version="1.0" encoding="UTF-8"?>
<svg width="192px" height="53px" viewBox="0 0 192 53" version="1.1" xmlns="http://www.w3.org/2000/svg" xmlns:xlink="http://www.w3.org/1999/xlink">
    <title>FortiFi Logo Positive</title>
    <defs>
        <polygon id="path-1" points="0 52.3837209 191.730462 52.3837209 191.730462 0.511511628 0 0.511511628"></polygon>
    </defs>
    <g id="Symbols" stroke="none" stroke-width="1" fill="none" fill-rule="evenodd">
        <g id="header" transform="translate(-98.000000, -26.000000)">
            <g id="Group-22" transform="translate(98.000000, 26.000000)">
                <polygon id="Fill-1" fill="#00968A" points="172.306523 20.0682651 178.7816 26.5527535 172.306523 33.0366256 178.7816 39.5204977 191.730523 26.5533698 178.7816 13.584393"></polygon>
                <polygon id="Fill-2" fill="#027162" points="159.357046 46.0043081 165.832123 52.4887965 178.781662 39.520436 172.306585 33.036564"></polygon>
                <polygon id="Fill-3" fill="#A7CE43" points="165.832062 0.616094186 159.356985 7.10058256 172.306523 20.0683267 178.7816 13.5844547"></polygon>
                <polygon id="Fill-4" fill="#00BCD9" points="178.781354 26.5526302 172.306892 33.0365023 165.831815 26.5526302 172.306892 20.0687581"></polygon>
                <polygon id="Fill-5" fill="#CCE8DE" points="172.306585 33.0365023 159.357046 46.0042465 152.8832 39.5203744 165.832123 26.5526302"></polygon>
                <polygon id="Fill-6" fill="#CCE8DE" points="159.357046 7.10039767 152.8832 13.5842698 165.831508 26.5526302 172.306585 20.0681419"></polygon>
                <polygon id="Fill-7" fill="#003039" points="0 8.36623488 0 43.8799326 6.616 43.8799326 6.616 29.281514 20.6683077 29.281514 20.6683077 23.6388628 6.616 23.6388628 6.616 14.0095023 25.4849231 14.0095023 25.4849231 8.36623488"></polygon>
                <g id="Group-21" transform="translate(0.000000, 0.105014)">
                    <path d="M43.4589538,37.1744465 C44.5617231,35.742214 45.1131077,33.5242256 45.1131077,30.521714 L45.1131077,29.7969698 C45.1131077,26.7944581 44.5617231,24.5777023 43.4589538,23.1448535 C42.3555692,21.7126209 40.5814154,20.9965047 38.1346462,20.9965047 C35.6528,20.9965047 33.8694154,21.7126209 32.7844923,23.1448535 C31.6989538,24.5777023 31.1555692,26.7944581 31.1555692,29.7969698 L31.1555692,30.521714 C31.1555692,33.5242256 31.6989538,35.742214 32.7844923,37.1744465 C33.8694154,38.6066791 35.6528,39.3221791 38.1346462,39.3221791 C40.5814154,39.3221791 42.3555692,38.6066791 43.4589538,37.1744465 M28.0798769,40.9269698 C25.8571077,38.615307 24.7457231,35.0254814 24.7457231,30.1593419 C24.7457231,25.2932023 25.8571077,21.7046093 28.0798769,19.391714 C30.3032615,17.0806674 33.6540308,15.9232953 38.1346462,15.9232953 C42.6134154,15.9232953 45.9660308,17.0806674 48.1888,19.391714 C50.4115692,21.7046093 51.5229538,25.2932023 51.5229538,30.1593419 C51.5229538,35.0254814 50.4115692,38.615307 48.1888,40.9269698 C45.9660308,43.2398651 42.6134154,44.3953884 38.1346462,44.3953884 C33.6540308,44.3953884 30.3032615,43.2398651 28.0798769,40.9269698" id="Fill-8" fill="#003039"></path>
                    <path d="M55.7699077,16.544443 L60.8874462,16.544443 L61.4566769,20.841757 L61.8185231,20.841757 C63.0585231,17.5631523 65.0917538,15.9232337 67.9182154,15.9232337 C68.5385231,15.9232337 69.0892923,15.9836291 69.5723692,16.105036 C70.0542154,16.2258267 70.3649846,16.3201174 70.5028308,16.3891407 L70.5028308,22.2394779 L68.5385231,22.2394779 C64.1612923,22.2394779 61.9736,24.6904198 61.9736,29.5898384 L61.9736,43.77535 L55.7699077,43.77535 L55.7699077,16.544443 Z" id="Fill-10" fill="#003039"></path>
                    <path d="M77.4796923,42.4546023 C76.4624615,41.1598 75.9547692,39.5469977 75.9547692,37.6143465 L75.9547692,22.2616023 L73.4009231,22.2616023 L73.4009231,16.5443814 L76.0575385,16.5443814 L77.1953846,8.93456744 L82.1578462,8.93456744 L82.1578462,16.5443814 L86.8101538,16.5443814 L86.8101538,22.2616023 L82.1578462,22.2616023 L82.1578462,36.9925209 C82.1578462,38.5461605 82.8987692,39.3220558 84.3806154,39.3220558 L86.8101538,39.3220558 L86.8101538,43.5682186 C86.2587692,43.7752884 85.5695385,43.9638698 84.7424615,44.1376605 C83.9153846,44.3096023 83.1572308,44.3952651 82.468,44.3952651 C80.1590769,44.3952651 78.4956923,43.7487884 77.4796923,42.4546023" id="Fill-12" fill="#003039"></path>
                    <polygon id="Fill-14" fill="#027162" points="105.774769 8.26109767 131.259692 8.26109767 131.259692 13.9043651 112.391385 13.9043651 112.391385 23.5337256 126.443077 23.5337256 126.443077 29.1763767 112.391385 29.1763767 112.391385 43.7747953 105.774769 43.7747953"></polygon>
                    <mask id="mask-2" fill="white">
                        <use xlink:href="#path-1"></use>
                    </mask>
                    <g id="Clip-17"></g>
                    <polygon id="Fill-16" fill="#003039" mask="url(#mask-2)" points="92.3612308 43.7749186 98.5643077 43.7749186 98.5643077 16.5446279 92.3612308 16.5446279"></polygon>
                    <polygon id="Fill-18" fill="#003039" mask="url(#mask-2)" points="92.3612308 14.0166512 98.5643077 14.0166512 98.5643077 8.26122093 92.3612308 8.26122093"></polygon>
                    <polygon id="Fill-19" fill="#027162" mask="url(#mask-2)" points="135.747077 14.0166512 141.950769 14.0166512 141.950769 8.26122093 135.747077 8.26122093"></polygon>
                    <polygon id="Fill-20" fill="#027162" mask="url(#mask-2)" points="135.747077 43.7749186 141.950769 43.7749186 141.950769 16.5446279 135.747077 16.5446279"></polygon>
                </g>
            </g>
        </g>
    </g>
</svg>