<svg width="249" height="69" xmlns="http://www.w3.org/2000/svg" xmlns:xlink="http://www.w3.org/1999/xlink">
  <defs>
    <path id="a" d="M0 68.198h248.65V.666H0z"/>
  </defs>
  <g fill="none" fill-rule="evenodd">
    <path fill="#00968A" d="M223.46 26.127l8.397 8.44-8.396 8.443 8.396 8.441 16.793-16.883-16.793-16.883z"/>
    <path fill="#027162" d="M206.667 59.893l8.396 8.441 16.794-16.883-8.396-8.441z"/>
    <path fill="#A7CE43" d="M215.063.802l-8.396 8.442 16.794 16.883 8.396-8.442z"/>
    <path fill="#00BCD9" d="M231.857 34.568l-8.397 8.441-8.396-8.44 8.396-8.442z"/>
    <path fill="#CCE8DE" d="M223.46 43.01l-16.793 16.883-8.397-8.442 16.794-16.883zM206.667 9.244l-8.397 8.441 16.793 16.883 8.398-8.44z"/>
    <path fill="#FFF" d="M0 10.892v46.236h8.58V38.12h18.224v-7.346H8.58V18.24h24.47v-7.347z"/>
    <g transform="translate(0 .137)">
      <path d="M56.36 48.397c1.431-1.865 2.146-4.752 2.146-8.661v-.945c0-3.908-.715-6.794-2.145-8.66-1.431-1.864-3.732-2.797-6.905-2.797-3.219 0-5.532.933-6.939 2.798s-2.112 4.751-2.112 8.66v.944c0 3.909.705 6.796 2.112 8.66 1.407 1.865 3.72 2.797 6.939 2.797 3.173 0 5.474-.932 6.905-2.796m-19.945 4.886c-2.883-3.01-4.324-7.683-4.324-14.019 0-6.335 1.441-11.008 4.324-14.018 2.884-3.009 7.23-4.516 13.04-4.516 5.808 0 10.156 1.507 13.039 4.516 2.883 3.01 4.324 7.683 4.324 14.018 0 6.336-1.441 11.009-4.324 14.019-2.883 3.011-7.23 4.515-13.04 4.515-5.81 0-10.155-1.504-13.039-4.515M72.327 21.54h6.636l.739 5.593h.469c1.608-4.268 4.245-6.403 7.91-6.403.805 0 1.52.08 2.146.236.625.158 1.028.281 1.206.37v7.617h-2.547c-5.677 0-8.514 3.19-8.514 9.57V56.99h-8.045V21.539zM100.481 55.27c-1.319-1.684-1.977-3.785-1.977-6.3V28.981h-3.312v-7.443h3.445l1.476-9.907h6.435v9.907h6.034v7.443h-6.034V48.16c0 2.022.961 3.033 2.883 3.033h3.15v5.528c-.714.27-1.608.515-2.68.74-1.073.225-2.056.337-2.95.337-2.995 0-5.152-.842-6.47-2.527" fill="#FFF"/>
      <path fill="#CCE8DE" d="M137.177 10.755h33.05v7.347h-24.47v12.536h18.224v7.346h-18.224v19.007h-8.58z"/>
      <mask id="b" fill="#fff">
        <use xlink:href="#a"/>
      </mask>
      <path fill="#FFF" mask="url(#b)" d="M119.782 56.99h8.044V21.54h-8.044zM119.782 18.248h8.044v-7.493h-8.044z"/>
      <path fill="#CCE8DE" mask="url(#b)" d="M176.048 18.248h8.044v-7.493h-8.044zM176.048 56.99h8.044V21.54h-8.044z"/>
    </g>
  </g>
</svg>
