<svg id="Layer_1" xmlns="http://www.w3.org/2000/svg" viewBox="0 0 51.1 51.1"><g id="Desktop"><g id="Home-Page" transform="translate(-453 -2429)"><g id="Group-20" transform="translate(0 46)"><g id="Group-19" transform="translate(0 2255)"><g id="np_funding_2725729_000000" transform="translate(453 128)"><path id="Shape" class="st0" fill="#00303a" d="M45.4 19.9c-1.3-.9-3-.5-3.9.9l-3.1 4.7c-.7-.1-1.5.1-2.1.6L30 31.5c-.9.8-1.5 1.9-1.7 3l-.9 5.8v5.5c0 .5.4.9.9.9H36c.5 0 .9-.4.9-.9V41l4.6-3.6c1.6-1.2 2.6-3 3.1-4.9l2.1-9.7c.3-1.1-.2-2.3-1.3-2.9zm-16.1 25v-3.4h5.8v3.4h-5.8zm13.5-12.7c-.3 1.5-1.2 2.9-2.4 3.9l-4.7 3.6h-6.3l.7-4.8c.1-.8.5-1.4 1.1-1.9l6.3-5.5c.3-.2.7-.2.9 0 .3.2.3.6.1.9l-1.1 1.8c-.4.7-.9 1.3-1.6 1.9l-1.7 1.6c-.4.4-.4.9 0 1.3s.9.4 1.3 0l1.7-1.6c.7-.7 1.3-1.4 1.9-2.2l1.1-1.8c.6-.9.5-2.2-.2-3l3-4.6c.3-.5.9-.6 1.4-.3.4.2.5.7.4 1.1l-1.9 9.6z"/><path class="st0" d="M22.7 34.5c-.2-1.2-.8-2.3-1.7-3L14.7 26c-.6-.5-1.3-.7-2.1-.6l-3.1-4.7c-.9-1.3-2.6-1.7-3.9-.9-1 .6-1.5 1.9-1.3 3l2.1 9.7c.4 1.9 1.5 3.7 3.1 4.9L14 41v4.8c0 .5.4.9.9.9h7.7c.5 0 .9-.4.9-.9v-5.6l-.8-5.7zM10.6 36c-1.2-.9-2.1-2.3-2.4-3.9l-2.1-9.6c-.1-.4.1-.9.4-1.1.5-.3 1.2-.2 1.5.3l3 4.6c-.7.9-.8 2-.2 3l1.1 1.8c.5.9 1.2 1.6 1.9 2.2l1.7 1.6c.4.4.9.3 1.3 0 .4-.4.3-.9 0-1.3L15.1 32c-.6-.5-1.1-1.2-1.6-1.9l-1.1-1.8c-.2-.3-.1-.7.1-.9.3-.2.7-.2.9 0l6.3 5.5c.6.5.9 1.2 1.1 1.9l.8 4.8h-6.4L10.6 36zm5.3 8.9v-3.4h5.8v3.4h-5.8zm21-29.2c0-6.3-5.1-11.4-11.4-11.4S14.1 9.4 14.1 15.7c0 6.3 5.1 11.5 11.4 11.5S36.9 22 36.9 15.7zm-11.4 9.6c-5.3 0-9.6-4.3-9.6-9.6s4.3-9.6 9.6-9.6 9.6 4.3 9.6 9.6-4.3 9.6-9.6 9.6z"/><path id="Path" class="st0" d="M25.9 14.8H25c-.6 0-1.1-.4-1.3-1-.1-.8.4-1.4 1.2-1.4H26c.4 0 .8.3.9.6 0 .2.2.3.4.3h1.2c.2 0 .4-.2.4-.4-.2-1.2-1.2-2.2-2.4-2.3V9.2c0-.2-.2-.4-.4-.4H25c-.2 0-.4.2-.4.4v1.3c-1.6.2-2.8 1.6-2.6 3.3.1 1.6 1.5 2.8 3.1 2.8h.8c.6 0 1.1.4 1.3 1 .1.8-.4 1.4-1.2 1.4h-1.1c-.4 0-.8-.3-.9-.6 0-.2-.2-.3-.4-.3h-1.2c-.2 0-.4.2-.4.4.2 1.2 1.2 2.2 2.4 2.3v1.3c0 .2.2.4.4.4H26c.2 0 .4-.2.4-.4v-1.3c1.6-.2 2.8-1.6 2.6-3.3-.1-1.5-1.5-2.7-3.1-2.7z"/></g></g></g></g></g></svg>
