<?xml version="1.0" encoding="utf-8"?>
<!-- Generator: Adobe Illustrator 23.0.4, SVG Export Plug-In . SVG Version: 6.00 Build 0)  -->
<svg version="1.1" id="Layer_1" xmlns="http://www.w3.org/2000/svg" xmlns:xlink="http://www.w3.org/1999/xlink" x="0px" y="0px"
	 viewBox="0 0 51.1 51.1" style="enable-background:new 0 0 51.1 51.1;" xml:space="preserve">
<style type="text/css">
	.st0{fill:#00303A;}
</style>
<g id="Desktop">
	<g id="Home-Page" transform="translate(-453.000000, -2429.000000)">
		<g id="Group-20" transform="translate(0.000000, 46.000000)">
			<g id="Group-19" transform="translate(0.000000, 2255.000000)">
				<g id="np_funding_2725729_000000" transform="translate(453.000000, 128.000000)">
					<path id="Shape" class="st0" d="M45.4,19.9c-1.3-0.9-3-0.5-3.9,0.9l-3.1,4.7c-0.7-0.1-1.5,0.1-2.1,0.6L30,31.5
						c-0.9,0.8-1.5,1.9-1.7,3l-0.9,5.8v5.5c0,0.5,0.4,0.9,0.9,0.9h7.7c0.5,0,0.9-0.4,0.9-0.9l0-4.8l4.6-3.6c1.6-1.2,2.6-3,3.1-4.9
						l2.1-9.7C47,21.7,46.5,20.5,45.4,19.9L45.4,19.9z M29.3,44.9v-3.4h5.8v3.4H29.3z M42.8,32.2c-0.3,1.5-1.2,2.9-2.4,3.9l-4.7,3.6
						h-6.3l0.7-4.8c0.1-0.8,0.5-1.4,1.1-1.9l6.3-5.5c0.3-0.2,0.7-0.2,0.9,0c0.3,0.2,0.3,0.6,0.1,0.9l-1.1,1.8
						c-0.4,0.7-0.9,1.3-1.6,1.9l-1.7,1.6c-0.4,0.4-0.4,0.9,0,1.3c0.4,0.4,0.9,0.4,1.3,0l1.7-1.6c0.7-0.7,1.3-1.4,1.9-2.2l1.1-1.8
						c0.6-0.9,0.5-2.2-0.2-3l3-4.6c0.3-0.5,0.9-0.6,1.4-0.3c0.4,0.2,0.5,0.7,0.4,1.1L42.8,32.2z"/>
					<path class="st0" d="M22.7,34.5c-0.2-1.2-0.8-2.3-1.7-3L14.7,26c-0.6-0.5-1.3-0.7-2.1-0.6l-3.1-4.7c-0.9-1.3-2.6-1.7-3.9-0.9
						c-1,0.6-1.5,1.9-1.3,3l2.1,9.7c0.4,1.9,1.5,3.7,3.1,4.9L14,41v4.8c0,0.5,0.4,0.9,0.9,0.9h7.7c0.5,0,0.9-0.4,0.9-0.9v-5.6
						L22.7,34.5z M10.6,36c-1.2-0.9-2.1-2.3-2.4-3.9l-2.1-9.6c-0.1-0.4,0.1-0.9,0.4-1.1C7,21.1,7.7,21.2,8,21.7l3,4.6
						c-0.7,0.9-0.8,2-0.2,3l1.1,1.8c0.5,0.9,1.2,1.6,1.9,2.2l1.7,1.6c0.4,0.4,0.9,0.3,1.3,0c0.4-0.4,0.3-0.9,0-1.3L15.1,32
						c-0.6-0.5-1.1-1.2-1.6-1.9l-1.1-1.8c-0.2-0.3-0.1-0.7,0.1-0.9c0.3-0.2,0.7-0.2,0.9,0l6.3,5.5c0.6,0.5,0.9,1.2,1.1,1.9l0.8,4.8
						l-6.4,0L10.6,36z M15.9,44.9v-3.4h5.8v3.4H15.9z"/>
					<path class="st0" d="M36.9,15.7c0-6.3-5.1-11.4-11.4-11.4S14.1,9.4,14.1,15.7c0,6.3,5.1,11.5,11.4,11.5S36.9,22,36.9,15.7z
						 M25.5,25.3c-5.3,0-9.6-4.3-9.6-9.6c0-5.3,4.3-9.6,9.6-9.6s9.6,4.3,9.6,9.6C35.1,21,30.8,25.3,25.5,25.3z"/>
					<path id="Path" class="st0" d="M25.9,14.8h-0.9c-0.6,0-1.1-0.4-1.3-1c-0.1-0.8,0.4-1.4,1.2-1.4h1.1c0.4,0,0.8,0.3,0.9,0.6
						c0,0.2,0.2,0.3,0.4,0.3h1.2c0.2,0,0.4-0.2,0.4-0.4c-0.2-1.2-1.2-2.2-2.4-2.3V9.2c0-0.2-0.2-0.4-0.4-0.4H25
						c-0.2,0-0.4,0.2-0.4,0.4v1.3c-1.6,0.2-2.8,1.6-2.6,3.3c0.1,1.6,1.5,2.8,3.1,2.8l0.8,0c0.6,0,1.1,0.4,1.3,1
						c0.1,0.8-0.4,1.4-1.2,1.4h-1.1c-0.4,0-0.8-0.3-0.9-0.6c0-0.2-0.2-0.3-0.4-0.3h-1.2c-0.2,0-0.4,0.2-0.4,0.4
						c0.2,1.2,1.2,2.2,2.4,2.3v1.3c0,0.2,0.2,0.4,0.4,0.4H26c0.2,0,0.4-0.2,0.4-0.4v-1.3c1.6-0.2,2.8-1.6,2.6-3.3
						C28.9,16,27.5,14.8,25.9,14.8L25.9,14.8z"/>
				</g>
			</g>
		</g>
	</g>
</g>
</svg>
