<?xml version="1.0" encoding="utf-8"?>
<!-- Generator: Adobe Illustrator 23.0.4, SVG Export Plug-In . SVG Version: 6.00 Build 0)  -->
<svg version="1.1" id="Layer_1" xmlns="http://www.w3.org/2000/svg" xmlns:xlink="http://www.w3.org/1999/xlink" x="0px" y="0px"
	 viewBox="0 0 51.1 51.1" style="enable-background:new 0 0 51.1 51.1;" xml:space="preserve">
<style type="text/css">
	.st0{fill:#00303A;}
</style>
<g id="Desktop">
	<g id="Home-Page" transform="translate(-937.000000, -2429.000000)">
		<g id="Group-20" transform="translate(0.000000, 46.000000)">
			<g id="Group-19" transform="translate(0.000000, 2255.000000)">
				<g id="np_house_2723081_000000" transform="translate(937.000000, 128.000000)">
					<path id="Shape" class="st0" d="M28.4,44.8c2.6,0,4.9-1.6,5.9-4c1-2.4,0.4-5.2-1.4-7c-1.8-1.8-4.6-2.4-7-1.4
						c-2.4,1-4,3.3-4,5.9C21.9,41.9,24.8,44.8,28.4,44.8L28.4,44.8z M28.4,33.4c2,0,3.8,1.2,4.6,3.1c0.8,1.9,0.3,4-1.1,5.5
						s-3.6,1.9-5.5,1.1c-1.9-0.8-3.1-2.6-3.1-4.6C23.4,35.6,25.6,33.4,28.4,33.4L28.4,33.4z"/>
					<path class="st0" d="M26.9,39.8h-1.4c0,1.2,1,2.1,2.1,2.1v0.7h1.4v-0.7c1.2,0,2.1-1,2.1-2.1s-1-2.1-2.1-2.1v-1.4
						c0.2,0,0.4,0.1,0.5,0.2c0.1,0.1,0.2,0.3,0.2,0.5h1.4c0-1.2-1-2.1-2.1-2.1v-0.7h-1.4v0.7c-1.2,0-2.1,1-2.1,2.1s1,2.1,2.1,2.1
						v1.4C27.2,40.5,26.9,40.2,26.9,39.8L26.9,39.8z M26.9,36.9c0-0.4,0.3-0.7,0.7-0.7v1.4C27.2,37.7,26.9,37.3,26.9,36.9z
						 M29.1,39.1c0.4,0,0.7,0.3,0.7,0.7s-0.3,0.7-0.7,0.7V39.1z"/>
					<path class="st0" d="M46.2,25.5h-3.6v-5.7l1.1,0.6c0.3,0.2,0.8,0.1,1-0.3l2.1-3.6c0.1-0.2,0.1-0.4,0.1-0.6
						c-0.1-0.2-0.2-0.3-0.3-0.4l-5.3-2.9v-5h0.7c0.2,0,0.4-0.1,0.5-0.2c0.1-0.1,0.2-0.3,0.2-0.5V4.8c0-0.2-0.1-0.4-0.2-0.5
						s-0.3-0.2-0.5-0.2h-7.1c-0.4,0-0.7,0.3-0.7,0.7v2.1c0,0.2,0.1,0.4,0.2,0.5c0.1,0.1,0.3,0.2,0.5,0.2h0.7v1.8l-9.7-5.3
						c-0.2-0.1-0.5-0.1-0.7,0L4.4,15.6c-0.2,0.1-0.3,0.3-0.3,0.4c-0.1,0.2,0,0.4,0.1,0.6l2.1,3.6c0.2,0.3,0.6,0.4,1,0.3l1.8-1v20.4
						H7.6c-0.4,0-0.7,0.3-0.7,0.7v3.6c0,0.2,0.1,0.4,0.2,0.5c0.1,0.1,0.3,0.2,0.5,0.2h6.4v1.4c0,0.2,0.1,0.4,0.2,0.5
						c0.1,0.1,0.3,0.2,0.5,0.2h27.2c0.2,0,0.4-0.1,0.5-0.2c0.1-0.1,0.2-0.3,0.2-0.5h1.4c0.2,0,0.4-0.1,0.5-0.2
						c0.1-0.1,0.2-0.3,0.2-0.5v-1.4h1.4c0.2,0,0.4-0.1,0.5-0.2c0.1-0.1,0.2-0.3,0.2-0.5V26.2c0-0.2-0.1-0.4-0.2-0.5
						C46.6,25.6,46.4,25.5,46.2,25.5L46.2,25.5z M35.5,5.5h5.7v0.7h-5.7V5.5z M36.9,7.6h2.9v4.2l-2.9-1.6V7.6z M7.2,18.8l-1.4-2.3
						L25.5,5.6l19.7,10.9l-1.4,2.3l-18-10.4c-0.2-0.1-0.5-0.1-0.7,0L7.2,18.8z M10.5,18.5l15-8.7L41.2,19v6.5H16.9
						c-0.4,0-0.7,0.3-0.7,0.7v1.4h-0.7c-0.4,0-0.7,0.3-0.7,0.7v1.4c-0.4,0-0.7,0.3-0.7,0.7v9.3h-3.6V18.5z M41.2,33.3
						c-1-0.3-1.8-1-2.1-2.1h2.1V33.3z M37.7,31.2c0.3,1.8,1.7,3.2,3.5,3.5V42c-1.8,0.3-3.2,1.7-3.5,3.5H19c-0.3-1.8-1.7-3.2-3.5-3.5
						v-7.3c1.8-0.3,3.2-1.7,3.5-3.5H37.7z M15.5,33.3v-2h2C17.3,32.2,16.5,33,15.5,33.3L15.5,33.3z M8.3,43.4v-2.1h5.7v2.1H8.3z
						 M15.5,43.5c1,0.3,1.8,1,2,2h-2V43.5z M41.2,45.5h-2.1c0.3-1,1-1.8,2.1-2.1V45.5z M43.4,44.8h-0.7V30.5c0-0.2-0.1-0.4-0.2-0.5
						c-0.1-0.1-0.3-0.2-0.5-0.2H16.2v-0.7h27.2V44.8z M45.5,42.7h-0.7V28.4c0-0.2-0.1-0.4-0.2-0.5c-0.1-0.1-0.3-0.2-0.5-0.2H17.6
						v-0.7h27.9L45.5,42.7z"/>
					<path class="st0" d="M21.9,22.6h7.1c0.2,0,0.4-0.1,0.5-0.2c0.1-0.1,0.2-0.3,0.2-0.5v-7.1c0-0.2-0.1-0.4-0.2-0.5
						c-0.1-0.1-0.3-0.2-0.5-0.2h-7.1c-0.4,0-0.7,0.3-0.7,0.7v7.1c0,0.2,0.1,0.4,0.2,0.5C21.6,22.6,21.7,22.6,21.9,22.6L21.9,22.6z
						 M22.6,19.1h2.1v2.1h-2.1V19.1z M26.2,21.2v-2.1h2.1v2.1H26.2z M28.4,17.6h-2.1v-2.1h2.1V17.6z M24.8,15.5v2.1h-2.1v-2.1H24.8z
						"/>
				</g>
			</g>
		</g>
	</g>
</g>
</svg>
