<?xml version="1.0" encoding="utf-8"?>
<!-- Generator: Adobe Illustrator 23.0.4, SVG Export Plug-In . SVG Version: 6.00 Build 0)  -->
<svg version="1.1" id="Layer_1" xmlns="http://www.w3.org/2000/svg" xmlns:xlink="http://www.w3.org/1999/xlink" x="0px" y="0px"
	 viewBox="0 0 51.1 51.1" style="enable-background:new 0 0 51.1 51.1;" xml:space="preserve">
<style type="text/css">
	.st0{fill:#00303A;}
</style>
<path class="st0" d="M18.3,35.6c0.6,0,1-0.5,1-1v-6.3c0-0.6-0.5-1-1-1h-6.2c-0.6,0-1,0.5-1,1v6.2c0,0.6,0.5,1,1,1L18.3,35.6
	L18.3,35.6z M13.1,29.3h4.2v4.2h-4.2C13.1,33.5,13.1,29.3,13.1,29.3z"/>
<path class="st0" d="M3.7,20.5v0.1v20.1h-2c-0.6,0-1,0.5-1,1s0.5,1,1,1h47.9c0.6,0,1-0.5,1-1c0-0.3-0.1-0.5-0.3-0.7
	s-0.4-0.3-0.7-0.3h-1.1V20.4c0-0.3-0.1-0.6-0.3-0.8L36.8,8.1c-0.2-0.2-0.4-0.3-0.7-0.3H15.2c-0.2,0-0.4,0.1-0.6,0.2
	c-0.1,0-0.1,0.1-0.1,0.1l-0.1,0.1L3.9,19.9C3.7,20.1,3.7,20.3,3.7,20.5z M46.6,40.7H26.8V21.5h19.8V40.7z M35.6,9.9l9.7,9.7H26.2
	l-8.7-9.7C17.5,9.9,35.6,9.9,35.6,9.9z M15.2,10.4l8.3,9.2H7L15.2,10.4z M5.7,21.7h19.1v19.1H5.7V21.7z"/>
</svg>
