<?xml version="1.0" encoding="utf-8"?>
<!-- Generator: Adobe Illustrator 23.0.4, SVG Export Plug-In . SVG Version: 6.00 Build 0)  -->
<svg version="1.1" id="Layer_1" xmlns="http://www.w3.org/2000/svg" xmlns:xlink="http://www.w3.org/1999/xlink" x="0px" y="0px"
	 viewBox="0 0 51.1 51.1" style="enable-background:new 0 0 51.1 51.1;" xml:space="preserve">
<style type="text/css">
	.st0{fill:#00303A;}
</style>
<g id="Desktop">
	<g id="How-it-works" transform="translate(-1398.000000, -2418.000000)">
		<g id="Group-16" transform="translate(0.000000, 2187.000000)">
			<g id="Group-12">
				<g id="np_water_1235506_000000" transform="translate(1398.000000, 231.000000)">
					<path id="Shape" class="st0" d="M33.7,29.6c2.8,0,5.5-1.5,6.9-3.9c1.5-2.4,1.6-5.5,0.2-8l-6-11.4c-0.2-0.4-0.7-0.7-1.2-0.7
						c-0.5,0-0.9,0.3-1.2,0.7l-6,11.4c-1.3,2.5-1.2,5.5,0.2,8C28.2,28.1,30.8,29.6,33.7,29.6L33.7,29.6z M28.8,19l4.9-9.2l4.9,9.2v0
						c0.9,1.7,0.8,3.8-0.2,5.4c-1,1.7-2.8,2.7-4.7,2.7s-3.7-1-4.7-2.7C28,22.7,27.9,20.7,28.8,19L28.8,19z"/>
					<path class="st0" d="M12.9,16c1.8,0,3.5-0.9,4.4-2.5c0.9-1.5,1-3.4,0.1-5L14,2.1c-0.2-0.4-0.7-0.7-1.2-0.7
						c-0.5,0-0.9,0.3-1.2,0.7L8.3,8.5c-0.8,1.6-0.8,3.5,0.1,5C9.4,15.1,11.1,16,12.9,16L12.9,16z M10.6,9.7l2.2-4.2l2.2,4.2
						c0.4,0.8,0.4,1.7-0.1,2.4c-0.5,0.7-1.3,1.2-2.1,1.2c-0.9,0-1.7-0.5-2.1-1.2C10.3,11.4,10.2,10.5,10.6,9.7L10.6,9.7z"/>
					<path id="Path" class="st0" d="M4.8,44.6c0.8,0.5,1.5,1.1,2,1.8c1.2,1.4,2.7,3.1,5.5,3.1c2.9,0,4.4-1.7,5.6-3.1
						c1.2-1.4,2-2.2,3.6-2.2s2.4,0.8,3.6,2.2c1.2,1.4,2.7,3.1,5.5,3.1s4.4-1.7,5.5-3.1c1.2-1.4,2-2.2,3.6-2.2s2.4,0.8,3.6,2.2h0
						c0.6,0.8,1.4,1.5,2.2,2.1c0.6,0.4,1.4,0.2,1.8-0.4c0.4-0.6,0.2-1.4-0.3-1.8c-0.6-0.5-1.2-1-1.7-1.6c-1.2-1.4-2.7-3.1-5.5-3.1
						c-2.9,0-4.4,1.7-5.6,3.1c-1.2,1.4-2,2.2-3.6,2.2s-2.4-0.8-3.6-2.2c-1.2-1.4-2.7-3.1-5.5-3.1s-4.4,1.7-5.5,3.1s-2,2.2-3.6,2.2
						s-2.4-0.8-3.6-2.2h0c-0.8-1-1.8-1.9-2.9-2.5c-0.6-0.3-1.4,0-1.8,0.6C3.9,43.5,4.1,44.3,4.8,44.6L4.8,44.6z"/>
					<path class="st0" d="M4.2,34C4,34.3,4,34.6,4.1,35c0.1,0.3,0.3,0.6,0.7,0.8c0.8,0.5,1.5,1.1,2,1.8c1.2,1.4,2.7,3.1,5.5,3.1
						c2.9,0,4.4-1.7,5.6-3.1c1.2-1.4,2-2.2,3.6-2.2s2.4,0.8,3.6,2.2c1.2,1.4,2.7,3.1,5.5,3.1s4.4-1.7,5.5-3.1c1.2-1.4,2-2.2,3.6-2.2
						s2.4,0.8,3.6,2.2h0c0.6,0.8,1.4,1.5,2.2,2.1c0.3,0.2,0.7,0.3,1,0.2c0.4-0.1,0.7-0.3,0.9-0.6c0.2-0.3,0.3-0.7,0.2-1
						c-0.1-0.3-0.3-0.6-0.6-0.8c-0.6-0.5-1.2-1-1.7-1.6c-1.2-1.4-2.7-3.1-5.5-3.1c-2.9,0-4.4,1.7-5.6,3.1c-1.2,1.4-2,2.2-3.6,2.2
						c-1.6,0-2.4-0.8-3.6-2.2c-1.2-1.4-2.7-3.1-5.5-3.1s-4.4,1.7-5.5,3.1c-1.2,1.4-2,2.2-3.6,2.2s-2.4-0.8-3.6-2.2h0
						c-0.8-1-1.8-1.9-2.9-2.5C5.3,33.1,4.5,33.3,4.2,34L4.2,34z"/>
				</g>
			</g>
		</g>
	</g>
</g>
</svg>
