<?xml version="1.0" encoding="utf-8"?>
<!-- Generator: Adobe Illustrator 23.0.4, SVG Export Plug-In . SVG Version: 6.00 Build 0)  -->
<svg version="1.1" id="Layer_1" xmlns="http://www.w3.org/2000/svg" xmlns:xlink="http://www.w3.org/1999/xlink" x="0px" y="0px"
	 viewBox="0 0 51.1 51.1" style="enable-background:new 0 0 51.1 51.1;" xml:space="preserve">
<style type="text/css">
	.st0{fill:#00303A;}
</style>
<g id="Desktop">
	<g id="Home-Page" transform="translate(-1427.000000, -2431.000000)">
		<g id="Group-20" transform="translate(0.000000, 46.000000)">
			<g id="Group-19" transform="translate(0.000000, 2255.000000)">
				<g id="np_contractor_1087367_000000" transform="translate(1427.000000, 130.000000)">
					<path id="Shape" class="st0" d="M21.6,3.3c-1.3,0-2.4,1.1-2.4,2.3v0.1c-4.5,2.3-7.4,6.8-7.4,11.7v1.5c0,0,0,0-0.1,0L11,19.2
						c-0.5,0.2-0.8,0.6-0.8,1.1v3.8c0,0.7,0.5,1.2,1.2,1.2h28.4c0.7,0,1.2-0.5,1.2-1.1v-3.8c0-0.5-0.3-1-0.8-1.1L39.1,19
						c0,0-0.1,0-0.1,0v-1.5c0-4.9-2.9-9.5-7.3-11.7V5.6c0-1.3-1.1-2.3-2.4-2.3H21.6z M21.6,5.6h7.7c0.1,0,0.1,0,0.1,0v0.8
						c0,0.1,0,0.2,0,0.2V12c0,0.7,0.5,1.2,1.2,1.2s1.2-0.5,1.2-1.2v-1.6c1.7,2,2.7,4.5,2.7,7.1V19c0,0.2,0,0.3,0,0.5H20.4
						c-0.7,0-1.2,0.5-1.2,1.2s0.5,1.2,1.2,1.2h15.8V23H12.4v-1.8c1-0.3,1.7-1.2,1.7-2.3v-1.5c0-3.7,1.9-7.1,5-9.1v3.6
						c0,0.7,0.5,1.2,1.2,1.2c0.7,0,1.2-0.5,1.2-1.2L21.6,5.6C21.5,5.6,21.5,5.6,21.6,5.6L21.6,5.6z M14,27.7c-0.1,0-0.3,0-0.4,0.1
						c-0.6,0.2-0.9,0.9-0.7,1.5c4.2,11.7,10.2,13,12.6,13s8.4-1.3,12.7-13c0.2-0.6-0.1-1.3-0.7-1.5c-0.6-0.2-1.3,0.1-1.5,0.7
						c-3.7,10.3-8.6,11.4-10.5,11.4c-1.9,0-6.8-1.1-10.5-11.4C14.8,28,14.4,27.8,14,27.7L14,27.7z M29.9,41.9c0,0-0.1,0-0.1,0
						c0,0-0.1,0-0.1,0c0,0-0.1,0-0.1,0s-0.1,0-0.1,0c0,0-0.1,0-0.1,0.1c0,0-0.1,0-0.1,0.1l-0.1,0.1c0,0,0,0.1-0.1,0.1
						c0,0,0,0.1-0.1,0.1c0,0,0,0.1,0,0.1c0,0,0,0,0,0v0.1c0,0,0,0,0,0.1c-0.5,2-2.2,2.6-3.5,2.6c-1.3,0-3-0.7-3.5-2.6c0,0,0,0,0,0
						v-0.1c0,0,0,0,0,0c0,0,0-0.1,0-0.1c0,0,0-0.1-0.1-0.1c0,0,0-0.1-0.1-0.1l-0.1-0.1c0,0-0.1,0-0.1-0.1L21.4,42c0,0-0.1,0-0.1,0
						s-0.1,0-0.1,0c0,0-0.1,0-0.1,0c0,0-0.1,0-0.1,0h-0.3c0,0-0.1,0-0.1,0h0c0,0,0,0-0.1,0h-0.1l-8.5,3.5c-0.6,0.2-0.9,0.9-0.6,1.5
						c0.2,0.5,0.6,0.7,1.1,0.7c0.2,0,0.3,0,0.4-0.1l7.4-3c1,1.9,3,3.1,5.2,3.1c2.4,0,4.3-1.2,5.3-3.1l7.4,3c0.2,0.1,0.3,0.1,0.4,0.1
						c0.5,0,0.9-0.3,1.1-0.7c0.2-0.6,0-1.3-0.6-1.5l-8.5-3.5h-0.1c0,0,0,0-0.1,0h0c0,0-0.1,0-0.1,0H29.9z"/>
				</g>
			</g>
		</g>
	</g>
</g>
</svg>
