<?xml version="1.0" encoding="utf-8"?>
<!-- Generator: Adobe Illustrator 23.0.4, SVG Export Plug-In . SVG Version: 6.00 Build 0)  -->
<svg version="1.1" id="Layer_1" xmlns="http://www.w3.org/2000/svg" xmlns:xlink="http://www.w3.org/1999/xlink" x="0px" y="0px"
	 viewBox="0 0 51.1 51.1" style="enable-background:new 0 0 51.1 51.1;" xml:space="preserve">
<style type="text/css">
	.st0{fill:#00303A;}
</style>
<g id="Desktop">
	<g id="How-it-works" transform="translate(-1393.000000, -2884.000000)">
		<g id="Group-16" transform="translate(0.000000, 2187.000000)">
			<g id="Group-12">
				<g id="np_renewable-power_1020464_000000" transform="translate(1393.000000, 697.000000)">
					<path id="Shape" class="st0" d="M49.8,20.2h-5.5v-5.5c0-0.6-0.5-1.2-1.2-1.2H36c-0.6,0-1.2,0.5-1.2,1.2c0,0.6,0.5,1.2,1.2,1.2
						h6v5.5c0,0,0,0,0,0v11.4c0,0,0,0,0,0V35c0,1.8-1.5,3.3-3.3,3.3l-23,0c0.7-10,10.5-19.5,10.6-19.6c0.1-0.1,0.7-0.6,1.4-0.3
						c0.3,0.2,0.5,0.3,0.5,0.5c0,0.1,0,0.2,0,0.3c-7.7,8.2-8,11-7.5,12.4c0.3,0.9,0.9,1.3,1.4,1.4c0.1,0,0.3,0,0.4,0
						c4.3-0.6,7.4-2.5,9.3-5.6c4.4-7.5-0.4-19.5-0.6-20C31,7,30.7,6.8,30.3,6.7c-0.4-0.1-0.8,0.1-1.1,0.4c-1.9,2.3-4.4,3-7.1,3.8
						c-3.3,0.9-6.8,1.9-8.7,6c-3.3,7.2,0.6,12.3,1.8,13.7c-1,2.4-1.7,5-1.9,7.7l-10.6,0V15.8h8c0.6,0,1.2-0.5,1.2-1.2
						c0-0.6-0.5-1.2-1.2-1.2H1.5c-0.6,0-1.2,0.5-1.2,1.2v24.8c0,0.6,0.5,1.2,1.2,1.2h37.1c3.1,0,5.6-2.5,5.6-5.6v-1h5.5
						c0.6,0,1.2-0.5,1.2-1.2V21.3C50.9,20.7,50.4,20.2,49.8,20.2L49.8,20.2z M48.6,31.6h-4.3v-9.1h4.3V31.6z"/>
				</g>
			</g>
		</g>
	</g>
</g>
</svg>
