<?xml version="1.0" encoding="utf-8"?>
<!-- Generator: Adobe Illustrator 23.0.4, SVG Export Plug-In . SVG Version: 6.00 Build 0)  -->
<svg version="1.1" id="Layer_1" xmlns="http://www.w3.org/2000/svg" xmlns:xlink="http://www.w3.org/1999/xlink" x="0px" y="0px"
	 viewBox="0 0 51.1 51.1" style="enable-background:new 0 0 51.1 51.1;" xml:space="preserve">
<style type="text/css">
	.st0{fill:#00303A;}
</style>
<path class="st0" d="M12.3,10v36.2c0,1.8,1.4,3.2,3.2,3.2h20.9c1.8,0,3.2-1.4,3.2-3.2V10c0-1.8-1.4-3.2-3.2-3.2h-6V2.3h-9v4.5h-6
	C13.7,6.8,12.3,8.2,12.3,10z M36.4,8.7c0.7,0,1.3,0.6,1.3,1.3v35.2l0.1,1c0,0.7-0.6,1.3-1.3,1.3h-21c-0.7,0-1.3-0.6-1.3-1.3V10
	c0-0.7,0.6-1.3,1.3-1.3H36.4z"/>
<rect x="18.5" y="38.9" class="st0" width="14.8" height="4.3"/>
<path class="st0" d="M26.7,32.9c0.5,0.7,1.6,0.4,1.6-0.5v-6.6h2.2c0.8,0,1.3-0.9,0.8-1.6l-6.2-9.1c-0.5-0.7-1.6-0.4-1.6,0.5v6.6
	h-2.2c-0.8,0-1.3,0.9-0.8,1.6L26.7,32.9z"/>
</svg>
