<?xml version="1.0" encoding="utf-8"?>
<!-- Generator: Adobe Illustrator 23.0.4, SVG Export Plug-In . SVG Version: 6.00 Build 0)  -->
<svg version="1.1" id="Layer_1" xmlns="http://www.w3.org/2000/svg" xmlns:xlink="http://www.w3.org/1999/xlink" x="0px" y="0px"
	 viewBox="0 0 51.1 51.1" style="enable-background:new 0 0 51.1 51.1;" xml:space="preserve">
<style type="text/css">
	.st0{fill:#00303A;}
</style>
<g id="Desktop">
	<g id="How-it-works" transform="translate(-916.000000, -2876.000000)">
		<g id="Group-16" transform="translate(0.000000, 2187.000000)">
			<g id="Group-12">
				<g id="np_electricity-source_2447887_000000" transform="translate(916.000000, 689.000000)">
					<path id="Shape" class="st0" d="M23.9,17.3H8.6c-0.6,0-1,0.4-1,1v10.1c0,0.6,0.4,1,1,1h15.3c0.6,0,1-0.4,1-1V18.3
						C24.9,17.8,24.5,17.3,23.9,17.3z M22.9,27.4H9.6v-8.1h13.3V27.4z"/>
					<path id="Path" class="st0" d="M19,36.2C19,36.1,19,36.1,19,36.2c0-0.1,0-0.2,0-0.2c0,0,0-0.1,0-0.1c0,0,0,0,0,0c0,0,0,0,0-0.1
						c0,0,0-0.1,0-0.1c0,0,0-0.1-0.1-0.1c0,0,0-0.1-0.1-0.1c0,0,0,0-0.1-0.1c0,0,0,0-0.1-0.1c0,0-0.1,0-0.1-0.1c0,0-0.1,0-0.1,0
						c0,0-0.1,0-0.1,0c0,0,0,0-0.1,0c0,0,0,0,0,0c0,0-0.1,0-0.1,0c0,0-0.1,0-0.1,0c0,0-0.1,0-0.1,0c0,0-0.1,0-0.1,0c0,0-0.1,0-0.1,0
						c0,0-0.1,0-0.1,0c0,0,0,0,0,0L16,36l0.9-3.4c0.1-0.5-0.2-1.1-0.7-1.2c-0.5-0.1-1.1,0.2-1.2,0.7l-1.4,5.3c0,0,0,0,0,0
						c0,0,0,0.1,0,0.1c0,0,0,0.1,0,0.1c0,0,0,0.1,0,0.1c0,0,0,0.1,0,0.1c0,0,0,0.1,0,0.1c0,0,0,0.1,0,0.1c0,0,0,0,0,0c0,0,0,0,0,0
						c0,0.1,0.1,0.1,0.1,0.2c0,0,0,0,0,0c0.1,0.1,0.1,0.1,0.2,0.2c0,0,0,0,0.1,0c0.1,0,0.1,0.1,0.2,0.1c0,0,0,0,0.1,0c0,0,0,0,0,0
						c0.1,0,0.2,0,0.2,0h0c0.1,0,0.2,0,0.3,0c0,0,0,0,0.1,0c0,0,0,0,0,0l1.6-0.7l-0.9,3.4c-0.1,0.5,0.2,1.1,0.7,1.2
						c0.1,0,0.2,0,0.3,0c0.4,0,0.8-0.3,1-0.7l1.4-5.3c0,0,0,0,0,0c0,0,0-0.1,0-0.1c0,0,0-0.1,0-0.1C19,36.2,19,36.2,19,36.2L19,36.2
						z"/>
					<path class="st0" d="M47,5.1h-1.9l0-1.1H47c0.6,0,1-0.4,1-1s-0.4-1-1-1h-1.9V1.3c0-0.6-0.4-1-1-1h-3.4c-1.6,0-2.9,1.3-2.9,2.9
						v0.3c-1.4,0.1-2.4,0.6-3.1,1.4c-2.1,2.4-1.2,7.5,0.8,18.7c2,10.7-4.3,14.7-7,15.9l0-24.3c0-1.6-1.3-2.9-2.9-2.9H6.8
						c-1.6,0-2.9,1.3-2.9,2.9v29.4l-0.9,0c-0.6,0-1,0.4-1,1v3.5c0,0.6,0.4,1,1,1h26.5c0.6,0,1-0.4,1-1v-3.5c0-0.6-0.4-1-1-1h-0.9v-3
						c2.7-1,11.4-5.4,9-18.4c-1.6-8.9-2.8-15.3-1.3-17c0.2-0.3,0.6-0.6,1.6-0.7v0.6c0,1.6,1.3,2.9,2.9,2.9h3.4c0.6,0,1-0.4,1-1V7.1
						H47c0.6,0,1-0.4,1-1C48,5.5,47.5,5.1,47,5.1L47,5.1z M28.5,48.1H4v-1.5h24.5V48.1z M6,44.6V15.2c0-0.5,0.4-0.9,0.9-0.9h18.9
						c0.5,0,0.9,0.4,0.9,0.9v29.4L6,44.6z M39.9,6.1V3.2c0-0.5,0.4-0.9,0.9-0.9h2.4V7h-2.4C40.2,7,39.9,6.6,39.9,6.1z"/>
				</g>
			</g>
		</g>
	</g>
</g>
</svg>
