<?xml version="1.0" encoding="utf-8"?>
<!-- Generator: Adobe Illustrator 23.0.4, SVG Export Plug-In . SVG Version: 6.00 Build 0)  -->
<svg version="1.1" id="Layer_1" xmlns="http://www.w3.org/2000/svg" xmlns:xlink="http://www.w3.org/1999/xlink" x="0px" y="0px"
	 viewBox="0 0 51.1 51.1" style="enable-background:new 0 0 51.1 51.1;" xml:space="preserve">
<style type="text/css">
	.st0{fill:#00303A;}
</style>
<g>
	<path class="st0" d="M37.6,30.6c0-1.3-1-2.3-2.3-2.4l-4,0v-8.5c0-0.3-0.2-0.7-0.4-0.9c-0.2-0.2-0.5-0.3-0.8-0.3
		c-0.6,0.1-1.3,0.5-1.3,1.2v8.5h-6.2v-5.6c0-0.3-0.2-0.7-0.4-0.9c-0.2-0.2-0.5-0.3-0.8-0.3c-0.6,0-1.3,0.5-1.3,1.2v5.6H16
		c-1.3,0.1-2.3,1.1-2.3,2.4v5c0.1,0.6,0.1,1.2,0.2,1.8h0c0,0,0,0.1,0,0.1c0,0,0,0,0,0c0,0,0,0,0,0.1c0,0.1,0,0.2,0.1,0.3
		c0.1,0.6,0.4,1.1,0.7,1.7c0.2,0.5,0.6,1,1.1,1.6c0.8,0.9,2,1.7,3.3,2.2c0.4,0.1,0.8,0.3,1.3,0.3l0.4,0.1l0,2.7c0,0.5,0,0.9,0.1,1.2
		c0.3,1,1.1,1.5,2.1,1.6l4.3,0c0.7,0,1.4,0,1.9-0.4c0.7-0.4,1.1-1.1,1.1-1.9v-3.2l0.4-0.1c0.7-0.1,1.3-0.4,2-0.6
		c1.2-0.5,2.3-1.4,3.2-2.8c0.9-1.2,1.4-2.7,1.5-4.3c0-0.2,0-0.3,0-0.4V30.6z M27.8,46.8h-4.6v-3h4.6V46.8z M35.1,36.3
		c-0.1,0.6-0.2,1.1-0.4,1.5c-0.2,0.4-0.4,0.7-0.6,1.1L33.9,39l-0.1,0c-0.1,0.1-0.3,0.3-0.4,0.5L32.9,40c-0.1,0.1-0.2,0.2-0.4,0.3
		c-0.3,0.2-0.6,0.4-1,0.5l-0.3,0.1c-0.4,0.1-0.7,0.2-1.1,0.3c-1,0.1-2.1,0.1-3.1,0.1h-4.4c-0.5,0-1,0-1.4-0.1
		c-0.4-0.1-0.9-0.2-1.4-0.4c-0.4-0.2-0.7-0.3-1-0.6l-0.1-0.1h-0.1L18.5,40c-0.1-0.1-0.3-0.3-0.5-0.4l-0.1-0.1l-0.5-0.5
		c-0.1-0.1-0.2-0.2-0.3-0.4c-0.2-0.3-0.4-0.6-0.5-1c-0.1-0.2-0.1-0.4-0.2-0.6c-0.1-0.2-0.1-0.3-0.1-0.5c0-0.1,0-0.2-0.1-0.3l0-0.1
		c-0.1-0.7-0.1-1.5-0.1-2.2v-3.5h18.9V36.3z"/>
	<path class="st0" d="M28,11.7c-1.5,0.6-3.1,1.2-4.6,1.8c-1.5,0.6-3.1,1.2-4.6,1.8c-0.3,0.1-0.7,0.3-1.1,0.4c-0.3,0.1-0.7,0.3-1,0.4
		c-0.4,0.1-0.6,0.3-0.8,0.6c-0.2,0.6-0.2,0.8-0.1,0.9c0.2,0.4,0.5,0.8,0.8,0.9c0.2,0.1,0.4,0.1,0.7,0c1-0.4,1.9-0.8,2.9-1.1
		c1-0.4,1.9-0.8,2.9-1.1c1.5-0.6,3-1.2,4.6-1.8c1.5-0.6,3.1-1.2,4.6-1.8c0.3-0.1,0.7-0.3,1.1-0.4c0.3-0.1,0.7-0.3,1-0.4
		c0.4-0.1,0.6-0.3,0.8-0.7c0.1-0.2,0.2-0.6,0.1-0.9c-0.1-0.3-0.4-0.6-0.7-0.8c-0.2-0.1-0.5-0.2-0.7,0l0,0c-1,0.4-1.9,0.8-2.9,1.1
		C29.9,11,29,11.4,28,11.7z"/>
	<path class="st0" d="M30.9,3c-1,0.4-1.9,0.8-2.9,1.1c-1.5,0.6-3.1,1.2-4.6,1.8c-1.5,0.6-3.1,1.2-4.6,1.8c-0.7,0.3-1.4,0.6-2.2,0.8
		c-0.3,0.1-0.5,0.3-0.8,0.6c-0.2,0.5-0.2,0.8-0.1,1c0.2,0.5,0.9,1.1,1.6,0.9c0.9-0.4,1.9-0.7,2.8-1.1c1-0.4,1.9-0.8,2.9-1.1
		c1.5-0.6,3.1-1.2,4.6-1.8c1.5-0.6,3.1-1.2,4.6-1.8C32.6,5,33,4.8,33.3,4.7c0.3-0.1,0.7-0.3,1-0.4C34.8,4.2,35,4,35.2,3.7
		c0.2-0.5,0.2-0.8,0.1-1c-0.2-0.6-0.9-1.1-1.6-0.9C32.8,2.2,31.8,2.6,30.9,3z"/>
</g>
</svg>
